<?xml version="1.0" encoding="utf-8"?>
<!-- Generator: Adobe Illustrator 16.0.0, SVG Export Plug-In . SVG Version: 6.00 Build 0)  -->
<!DOCTYPE svg PUBLIC "-//W3C//DTD SVG 1.1//EN" "http://www.w3.org/Graphics/SVG/1.1/DTD/svg11.dtd">
<svg version="1.1" id="Layer_1" xmlns="http://www.w3.org/2000/svg" xmlns:xlink="http://www.w3.org/1999/xlink" x="0px" y="0px"
	 width="80px" height="80px" viewBox="0 0 80 80" enable-background="new 0 0 80 80" xml:space="preserve">
<g>
	<path fill="#696969" d="M80,68c0,6.627-5.373,12-12,12H12C5.373,80,0,74.627,0,68V12C0,5.372,5.373,0,12,0h56
		c6.627,0,12,5.372,12,12V68z"/>
	<g>
		<path fill="#FFFFFF" d="M12.853,58.167H7.791l9.797-36.334h3.831l9.762,36.334h-5.098l-1.808-7.297h-9.507L12.853,58.167z
			 M16.25,44.855h6.508l-3.183-12.473L16.25,44.855z"/>
		<path fill="#FFFFFF" d="M38.445,58.167c-0.482,0-1.011-0.256-1.59-0.765c-0.578-0.51-1.073-1.043-1.481-1.603
			c-0.412-0.525-0.772-1.142-1.086-1.849c-0.313-0.706-0.47-1.339-0.47-1.897V21.833h4.989v29.234c0,0.428,0.065,0.715,0.198,0.863
			c0.133,0.147,0.356,0.221,0.669,0.221h10.953c0.482,0,0.789,0.264,0.922,0.79c0.132,0.525,0.199,1.265,0.199,2.218
			s-0.067,1.692-0.199,2.219c-0.133,0.525-0.439,0.789-0.922,0.789H38.445z"/>
		<path fill="#FFFFFF" d="M58.906,58.167c-0.482,0-1.012-0.256-1.591-0.765c-0.578-0.51-1.072-1.043-1.481-1.603
			c-0.411-0.525-0.772-1.142-1.086-1.849c-0.313-0.706-0.47-1.339-0.47-1.897V21.833h4.989v29.234c0,0.428,0.065,0.715,0.199,0.863
			c0.132,0.147,0.355,0.221,0.668,0.221h10.954c0.481,0,0.788,0.264,0.922,0.79c0.132,0.525,0.198,1.265,0.198,2.218
			s-0.066,1.692-0.198,2.219c-0.134,0.525-0.44,0.789-0.922,0.789H58.906z"/>
	</g>
</g>
</svg>
