<?xml version="1.0" encoding="utf-8"?>
<!-- Generator: Adobe Illustrator 16.0.0, SVG Export Plug-In . SVG Version: 6.00 Build 0)  -->
<!DOCTYPE svg PUBLIC "-//W3C//DTD SVG 1.1//EN" "http://www.w3.org/Graphics/SVG/1.1/DTD/svg11.dtd">
<svg version="1.1" id="Layer_1" xmlns="http://www.w3.org/2000/svg" xmlns:xlink="http://www.w3.org/1999/xlink" x="0px" y="0px"
	 width="80px" height="80px" viewBox="0 0 80 80" enable-background="new 0 0 80 80" xml:space="preserve">
<g>
	<path fill="#696969" d="M80,68c0,6.627-5.373,12-12,12H12C5.373,80,0,74.627,0,68V12C0,5.372,5.373,0,12,0h56
		c6.627,0,12,5.372,12,12V68z"/>
	<g>
		<path fill="#FFFFFF" d="M27.824,8.963c0,0.396-0.419,0.712-1.258,0.944v5.873h12.306v15.313h-3.286v-1.817h-9.02v11.677H23.28
			V29.275h-8.95v1.888h-3.286V15.78H23.28V8.089l3.225,0.21C27.385,8.346,27.824,8.567,27.824,8.963z M14.33,26.479h8.95v-7.901
			h-8.95V26.479z M26.566,26.479h9.02v-7.901h-9.02V26.479z"/>
	</g>
	<g>
		<path fill="#FFFFFF" d="M34.256,34.436h19.371c0,16.143-5.184,24.171-16.78,31.01c-1.274-1.656-3.017-3.525-4.673-4.928
			c8.751-2.463,14.783-11.725,14.783-20.729H34.256V34.436z M64.119,30.994c2.719,0,3.398,0.17,3.398,0.68s-0.723,1.402-0.723,2.804
			v13.934h5.311v5.396h-5.311v16.992h-6.117V30.994H64.119z"/>
	</g>
</g>
</svg>
