<?xml version="1.0" encoding="utf-8"?>
<!-- Generator: Adobe Illustrator 16.0.0, SVG Export Plug-In . SVG Version: 6.00 Build 0)  -->
<!DOCTYPE svg PUBLIC "-//W3C//DTD SVG 1.1//EN" "http://www.w3.org/Graphics/SVG/1.1/DTD/svg11.dtd">
<svg version="1.1" id="Layer_1" xmlns="http://www.w3.org/2000/svg" xmlns:xlink="http://www.w3.org/1999/xlink" x="0px" y="0px"
	 width="80px" height="80px" viewBox="0 0 80 80" enable-background="new 0 0 80 80" xml:space="preserve">
<g>
	<path fill="#696969" d="M80,68c0,6.627-5.373,12-12,12H12C5.373,80,0,74.627,0,68V12C0,5.372,5.373,0,12,0h56
		c6.627,0,12,5.372,12,12V68z"/>
	<path opacity="0.7" fill="#FFFFFF" d="M20.639,21.833h-3.051l-0.433,1.603c2.14,2.14,4.279,4.279,6.419,6.418l-1.868-6.954
		C21.35,22.544,20.994,22.188,20.639,21.833z"/>
	<path opacity="0.7" fill="#FFFFFF" d="M25.595,37.375l-1.501-5.588c-2.413-2.412-4.826-4.825-7.238-7.237l-0.868,3.218
		L25.595,37.375z"/>
	<polygon fill="#FFFFFF" points="19.708,32.901 22.758,44.855 16.25,44.855 19.494,32.688 15.688,28.882 7.791,58.166 
		12.853,58.166 14.769,50.869 24.275,50.869 26.083,58.166 31.181,58.166 26.114,39.309 	"/>
	<path opacity="0.7" fill="#FFFFFF" d="M51.428,52.621l-0.356-0.356c-0.128-0.067-0.271-0.114-0.443-0.114h-4.757
		c1.852,1.852,3.702,3.703,5.554,5.554c0.051-0.095,0.094-0.202,0.125-0.327c0.132-0.525,0.199-1.266,0.199-2.219
		s-0.067-1.691-0.199-2.217C51.52,52.818,51.477,52.715,51.428,52.621z"/>
	<path opacity="0.7" fill="#FFFFFF" d="M46.387,58.166h4.086c-2.005-2.005-4.011-4.01-6.016-6.016h-4.086L46.387,58.166z"/>
	<path fill="#FFFFFF" d="M33.818,47.013v5.04c0,0.559,0.157,1.191,0.47,1.898c0.313,0.707,0.674,1.322,1.086,1.848
		c0.408,0.561,0.903,1.094,1.481,1.604c0.579,0.508,1.107,0.764,1.59,0.764h6.527L33.818,47.013z"/>
	<polygon opacity="0.7" fill="#FFFFFF" points="38.808,50.588 38.808,46.502 33.818,41.513 33.818,45.599 	"/>
	<polygon opacity="0.7" fill="#FFFFFF" points="33.818,35.013 33.818,40.099 38.808,45.088 38.808,40.002 	"/>
	<polygon opacity="0.7" fill="#FFFFFF" points="37.139,21.833 33.818,21.833 33.818,22.765 38.808,27.754 38.808,23.502 	"/>
	<path opacity="0.7" fill="#FFFFFF" d="M33.818,24.179v4.92l4.989,4.989v-4.92C37.145,27.505,35.481,25.842,33.818,24.179z"/>
	<path opacity="0.7" fill="#FFFFFF" d="M33.818,30.513v3.086l4.989,4.989v-3.086C37.145,33.839,35.481,32.176,33.818,30.513z"/>
	<path opacity="0.7" fill="#FFFFFF" d="M54.278,50.973v1.08c0,0.559,0.157,1.191,0.47,1.898c0.208,0.469,0.445,0.883,0.696,1.272
		l2.779,2.78c0.237,0.104,0.465,0.162,0.683,0.162h2.566C59.074,55.769,56.676,53.371,54.278,50.973z"/>
	<path opacity="0.7" fill="#FFFFFF" d="M54.278,25.973v4.586l4.989,4.989v-4.586C57.604,29.299,55.941,27.636,54.278,25.973z"/>
	<polygon opacity="0.7" fill="#FFFFFF" points="56.472,21.833 54.278,21.833 54.278,24.559 59.268,29.548 59.268,24.629 	"/>
	<path opacity="0.7" fill="#FFFFFF" d="M54.278,31.973v5.586l4.989,4.989v-5.586C57.604,35.299,55.941,33.636,54.278,31.973z"/>
	<path opacity="0.7" fill="#FFFFFF" d="M54.278,38.973v4.252c1.663,1.663,3.326,3.327,4.989,4.99v-4.253L54.278,38.973z"/>
	<path opacity="0.7" fill="#FFFFFF" d="M67.457,52.15h-4.253c2.005,2.006,4.011,4.011,6.016,6.016h1.869
		c0.481,0,0.788-0.264,0.922-0.789c0.042-0.166,0.074-0.361,0.103-0.569L67.457,52.15z"/>
	<path opacity="0.7" fill="#FFFFFF" d="M72.203,55.482c0.002-0.107,0.006-0.209,0.006-0.324c0-0.953-0.066-1.691-0.198-2.217
		c-0.134-0.527-0.44-0.791-0.922-0.791h-2.218L72.203,55.482z"/>
	<path opacity="0.7" fill="#FFFFFF" d="M61.79,52.15h-1.655c-0.313,0-0.536-0.072-0.668-0.221c-0.134-0.148-0.199-0.436-0.199-0.863
		v-1.438c-1.663-1.663-3.326-3.326-4.989-4.989v4.919c2.869,2.869,5.739,5.738,8.608,8.607h4.919
		C65.8,56.161,63.795,54.156,61.79,52.15z"/>
</g>
</svg>
