<?xml version="1.0" encoding="utf-8"?>
<!-- Generator: Adobe Illustrator 16.0.0, SVG Export Plug-In . SVG Version: 6.00 Build 0)  -->
<!DOCTYPE svg PUBLIC "-//W3C//DTD SVG 1.1//EN" "http://www.w3.org/Graphics/SVG/1.1/DTD/svg11.dtd">
<svg version="1.1" id="Layer_1" xmlns="http://www.w3.org/2000/svg" xmlns:xlink="http://www.w3.org/1999/xlink" x="0px" y="0px"
	 width="80px" height="80px" viewBox="0 0 80 80" enable-background="new 0 0 80 80" xml:space="preserve">
<g>
	<path fill="#696969" d="M80,68c0,6.628-5.373,12-12,12H12C5.373,80,0,74.628,0,68V12C0,5.373,5.373,0,12,0h56
		c6.627,0,12,5.373,12,12V68z"/>
	<g>
		<path fill="#FFFFFF" d="M48.301,43.69h-5.268v-5.268c-2.066-2.067-4.133-4.133-6.199-6.199V43.69H19.967V28.798h13.441
			l-5.271-5.272H13.771v28.995h6.195v-3.559h16.867v22.011h6.199V48.962h10.539C51.814,47.205,50.057,45.447,48.301,43.69z"/>
		<path opacity="0.7" fill="#FFFFFF" d="M43.033,12.943v-0.49c1.578-0.438,2.371-1.031,2.371-1.778c0-0.746-0.83-1.164-2.488-1.252
			l-3.641-0.236C40.527,10.438,41.781,11.691,43.033,12.943z"/>
		<path opacity="0.7" fill="#FFFFFF" d="M37.328,9.06l-0.494-0.032V12.7l6.199,6.198v-4.134
			C41.131,12.862,39.229,10.961,37.328,9.06z"/>
		<polygon opacity="0.7" fill="#FFFFFF" points="66.229,29.542 66.229,23.525 60.213,23.525 		"/>
		<path opacity="0.7" fill="#FFFFFF" d="M58.393,23.525h-4.777l5.271,5.272h1.146v1.146c2.066,2.065,4.131,4.131,6.195,6.196v-4.778
			L58.393,23.525z"/>
		<path opacity="0.7" fill="#FFFFFF" d="M60.033,31.765v4.134l6.195,6.196v-4.134C64.164,35.896,62.1,33.83,60.033,31.765z"/>
		<polygon opacity="0.7" fill="#FFFFFF" points="51.793,23.525 47.66,23.525 52.932,28.798 57.066,28.798 		"/>
		<polygon opacity="0.7" fill="#FFFFFF" points="60.033,37.72 60.033,42.337 66.229,48.532 66.229,43.916 		"/>
		<polygon opacity="0.7" fill="#FFFFFF" points="45.84,23.525 43.033,23.525 43.033,20.719 36.834,14.521 36.834,19.138 
			46.494,28.798 51.111,28.798 		"/>
		<path opacity="0.7" fill="#FFFFFF" d="M64.291,52.389h1.938v-2.035l-6.662-6.663h-3.973C58.492,46.59,61.393,49.49,64.291,52.389z
			"/>
		<path opacity="0.7" fill="#FFFFFF" d="M53.773,43.69h-3.652c1.758,1.757,3.516,3.515,5.273,5.271h3.65L53.773,43.69z"/>
		<path opacity="0.7" fill="#FFFFFF" d="M43.033,31.13v-2.332h1.641l-7.84-7.84v2.567h-1.406
			C37.963,26.061,40.498,28.595,43.033,31.13z"/>
		<path opacity="0.7" fill="#FFFFFF" d="M33.607,23.525h-3.65c1.758,1.757,3.514,3.515,5.271,5.272h1.605v1.605l6.199,6.198V32.95
			C39.891,29.809,36.75,26.668,33.607,23.525z"/>
	</g>
</g>
</svg>
