<?xml version="1.0" encoding="utf-8"?>
<!-- Generator: Adobe Illustrator 16.0.0, SVG Export Plug-In . SVG Version: 6.00 Build 0)  -->
<!DOCTYPE svg PUBLIC "-//W3C//DTD SVG 1.1//EN" "http://www.w3.org/Graphics/SVG/1.1/DTD/svg11.dtd">
<svg version="1.1" id="Layer_1" xmlns="http://www.w3.org/2000/svg" xmlns:xlink="http://www.w3.org/1999/xlink" x="0px" y="0px"
	 width="80px" height="80px" viewBox="0 0 80 80" enable-background="new 0 0 80 80" xml:space="preserve">
<g>
	<path fill="#696969" d="M80,68c0,6.627-5.373,12-12,12H12C5.373,80,0,74.627,0,68V12C0,5.372,5.373,0,12,0h56
		c6.627,0,12,5.372,12,12V68z"/>
	<g>
		<path fill="#FFFFFF" d="M68.423,28.673h-4.061c-2.008-4.484-3.238-7.024-3.689-7.62c-0.451-0.595-1.085-1.015-1.899-1.259
			s-3.405-0.367-7.771-0.367h-4.235v29.778c0,3.699,0.175,5.931,0.524,6.695c0.175,0.404,0.604,0.729,1.288,0.973
			c0.684,0.245,3.325,0.665,7.924,1.26v2.359c-8.878-0.234-14.582-0.351-17.114-0.351c-3.436,0-8.689,0.116-15.762,0.351v-2.359
			c4.656-0.595,7.422-1.063,8.295-1.402c0.582-0.234,0.982-0.622,1.201-1.164c0.218-0.542,0.327-2.769,0.327-6.68v-29.46h-7.335
			c-2.475,0-4.111,0.149-4.912,0.446c-0.801,0.298-1.463,0.84-1.986,1.626c-0.786,1.19-1.893,3.582-3.318,7.174h-3.974
			c0.495-3.124,0.801-5.281,0.917-6.472s0.247-3.508,0.394-6.951c11.526,0.234,22.791,0.33,33.794,0.287
			c9.313-0.063,16.008-0.159,20.084-0.287C67.142,19.353,67.578,23.827,68.423,28.673z"/>
	</g>
</g>
</svg>
