<?xml version="1.0" encoding="utf-8"?>
<!-- Generator: Adobe Illustrator 16.0.0, SVG Export Plug-In . SVG Version: 6.00 Build 0)  -->
<!DOCTYPE svg PUBLIC "-//W3C//DTD SVG 1.1//EN" "http://www.w3.org/Graphics/SVG/1.1/DTD/svg11.dtd">
<svg version="1.1" id="Layer_1" xmlns="http://www.w3.org/2000/svg" xmlns:xlink="http://www.w3.org/1999/xlink" x="0px" y="0px"
	 width="80px" height="80px" viewBox="0 0 80 80" enable-background="new 0 0 80 80" xml:space="preserve">
<g>
	<path fill="#696969" d="M80,68c0,6.627-5.373,12-12,12H12C5.373,80,0,74.627,0,68V12C0,5.373,5.373,0,12,0h56
		c6.627,0,12,5.373,12,12V68z"/>
	
		<line fill="none" stroke="#FFFFFF" stroke-width="8" stroke-linecap="round" stroke-miterlimit="10" x1="20.006" y1="60.749" x2="49.887" y2="30.869"/>
	<line fill="#696969" stroke="#696969" stroke-width="4" stroke-miterlimit="10" x1="36.654" y1="30.016" x2="49.727" y2="43.087"/>
	<polygon fill="none" stroke="#FFFFFF" stroke-width="2" stroke-linecap="round" stroke-miterlimit="10" points="59.535,33.173 
		60.633,35.397 63.09,35.753 61.313,37.485 61.732,39.93 59.535,38.776 57.342,39.93 57.76,37.485 55.982,35.753 58.439,35.397 	"/>
	<polygon fill="none" stroke="#FFFFFF" stroke-width="2" stroke-linecap="round" stroke-miterlimit="10" points="34.945,19.113 
		36.301,21.859 39.332,22.3 37.14,24.437 37.656,27.455 34.945,26.032 32.235,27.455 32.753,24.437 30.56,22.3 33.591,21.859 	"/>
	<polygon fill="none" stroke="#FFFFFF" stroke-width="2" stroke-linecap="round" stroke-miterlimit="10" points="55.982,16.086 
		57.082,18.311 59.535,18.666 57.76,20.398 58.18,22.843 55.982,21.689 53.788,22.843 54.207,20.398 52.431,18.666 54.886,18.311 	
		"/>
	<g>
		<g>
			<polyline fill="none" stroke="#FFFFFF" stroke-width="4" stroke-miterlimit="10" points="71.023,69.352 71.023,70.852 
				69.523,70.852 			"/>
			
				<line fill="none" stroke="#FFFFFF" stroke-width="4" stroke-miterlimit="10" stroke-dasharray="3.0896,3.0896" x1="66.434" y1="70.852" x2="12.365" y2="70.852"/>
			<polyline fill="none" stroke="#FFFFFF" stroke-width="4" stroke-miterlimit="10" points="10.82,70.852 9.32,70.852 9.32,69.352 
							"/>
			
				<line fill="none" stroke="#FFFFFF" stroke-width="4" stroke-miterlimit="10" stroke-dasharray="3.0896,3.0896" x1="9.32" y1="66.262" x2="9.32" y2="12.193"/>
			<polyline fill="none" stroke="#FFFFFF" stroke-width="4" stroke-miterlimit="10" points="9.32,10.648 9.32,9.148 10.82,9.148 			
				"/>
			
				<line fill="none" stroke="#FFFFFF" stroke-width="4" stroke-miterlimit="10" stroke-dasharray="3.0896,3.0896" x1="13.91" y1="9.148" x2="67.979" y2="9.148"/>
			<polyline fill="none" stroke="#FFFFFF" stroke-width="4" stroke-miterlimit="10" points="69.523,9.148 71.023,9.148 
				71.023,10.648 			"/>
			
				<line fill="none" stroke="#FFFFFF" stroke-width="4" stroke-miterlimit="10" stroke-dasharray="3.0896,3.0896" x1="71.023" y1="13.738" x2="71.023" y2="67.807"/>
		</g>
	</g>
</g>
</svg>
