<?xml version="1.0" encoding="utf-8"?>
<!-- Generator: Adobe Illustrator 16.0.0, SVG Export Plug-In . SVG Version: 6.00 Build 0)  -->
<!DOCTYPE svg PUBLIC "-//W3C//DTD SVG 1.1//EN" "http://www.w3.org/Graphics/SVG/1.1/DTD/svg11.dtd">
<svg version="1.1" id="Layer_1" xmlns="http://www.w3.org/2000/svg" xmlns:xlink="http://www.w3.org/1999/xlink" x="0px" y="0px"
	 width="80px" height="80px" viewBox="0 0 80 80" enable-background="new 0 0 80 80" xml:space="preserve">
<g>
	<path fill="#696969" d="M80,68c0,6.627-5.373,12-12,12H12C5.373,80,0,74.627,0,68V12C0,5.373,5.373,0,12,0h56
		c6.627,0,12,5.373,12,12V68z"/>
	
		<line fill="none" stroke="#FFFFFF" stroke-width="7" stroke-linecap="round" stroke-miterlimit="10" x1="25.869" y1="56.302" x2="50.514" y2="31.658"/>
	<line fill="#696969" stroke="#696969" stroke-width="4" stroke-miterlimit="10" x1="39.6" y1="30.954" x2="50.382" y2="41.735"/>
	<polygon fill="none" stroke="#FFFFFF" stroke-width="2" stroke-linecap="round" stroke-miterlimit="10" points="58.473,33.558 
		59.378,35.393 61.403,35.687 59.938,37.114 60.284,39.131 58.473,38.18 56.661,39.131 57.008,37.114 55.542,35.687 57.567,35.393 	
		"/>
	<polygon fill="none" stroke="#FFFFFF" stroke-width="2" stroke-linecap="round" stroke-miterlimit="10" points="37.428,20.396 
		38.546,22.659 41.046,23.023 39.237,24.785 39.664,27.275 37.428,26.101 35.192,27.275 35.619,24.785 33.811,23.023 36.311,22.659 
			"/>
	<polygon fill="none" stroke="#FFFFFF" stroke-width="2" stroke-linecap="round" stroke-miterlimit="10" points="55.542,19.465 
		56.448,21.3 58.473,21.594 57.007,23.021 57.354,25.038 55.542,24.087 53.731,25.038 54.077,23.021 52.612,21.594 54.637,21.3 	"/>
	<g>
		
			<circle fill="none" stroke="#FFFFFF" stroke-width="4" stroke-miterlimit="10" stroke-dasharray="3.0395,3.0395" cx="40.734" cy="40" r="30"/>
	</g>
</g>
</svg>
