<?xml version="1.0" encoding="utf-8"?>
<!-- Generator: Adobe Illustrator 16.0.0, SVG Export Plug-In . SVG Version: 6.00 Build 0)  -->
<!DOCTYPE svg PUBLIC "-//W3C//DTD SVG 1.1//EN" "http://www.w3.org/Graphics/SVG/1.1/DTD/svg11.dtd">
<svg version="1.1" id="Layer_1" xmlns="http://www.w3.org/2000/svg" xmlns:xlink="http://www.w3.org/1999/xlink" x="0px" y="0px"
	 width="80px" height="80px" viewBox="0 0 80 80" enable-background="new 0 0 80 80" xml:space="preserve">
<g>
	<path fill="#696969" d="M80,68c0,6.627-5.373,12-12,12H12C5.373,80,0,74.627,0,68V12C0,5.373,5.373,0,12,0h56
		c6.627,0,12,5.373,12,12V68z"/>
	<g>
		<path fill="none" stroke="#FFFFFF" stroke-width="6" stroke-linecap="round" stroke-miterlimit="10" d="M13.469,52.961
			c0-14.327,11.762-25.921,26.297-25.921"/>
		<path fill="none" stroke="#FFFFFF" stroke-width="6" stroke-linecap="round" stroke-miterlimit="10" d="M59.957,43.193
			c0-8.93-9.031-16.154-20.191-16.154"/>
		
			<line fill="none" stroke="#FFFFFF" stroke-width="5" stroke-linecap="round" stroke-miterlimit="10" x1="66.154" y1="45.166" x2="49.063" y2="45.166"/>
		
			<line fill="none" stroke="#FFFFFF" stroke-width="5" stroke-linecap="round" stroke-miterlimit="10" x1="53.57" y1="44.696" x2="64.323" y2="32.909"/>
		
			<line fill="none" stroke="#FFFFFF" stroke-width="5" stroke-linecap="round" stroke-miterlimit="10" x1="62.633" y1="44.038" x2="64.323" y2="36.572"/>
		
			<line fill="none" stroke="#FFFFFF" stroke-width="5" stroke-linecap="round" stroke-miterlimit="10" x1="66.531" y1="44.899" x2="66.531" y2="27.808"/>
		
			<line fill="none" stroke="#FFFFFF" stroke-width="5" stroke-linecap="round" stroke-miterlimit="10" x1="49.063" y1="45.166" x2="66.531" y2="27.808"/>
	</g>
</g>
</svg>
